<?xml version="1.0" encoding="UTF-8"?>
<svg width="1000px" height="1000px" viewBox="0 0 1000 1000" version="1.1" xmlns="http://www.w3.org/2000/svg" xmlns:xlink="http://www.w3.org/1999/xlink">
    <!-- Generator: Sketch 54.1 (76490) - https://sketchapp.com -->
    <title>编组 7</title>
    <desc>Created with Sketch.</desc>
    <g id="上传" stroke="none" stroke-width="1" fill="none" fill-rule="evenodd">
        <g id="画板" transform="translate(-5051.000000, -1582.000000)">
            <g id="编组-7" transform="translate(5051.000000, 1582.000000)">
                <rect id="矩形复制-9" x="0" y="0" width="1000" height="1000"></rect>
                <g id="编组-174" transform="translate(118.000000, 217.000000)">
                    <path d="M237.421054,419.185136 C230.640126,416.335945 223.49555,413.593867 216.158458,414.065162 C208.821364,414.536457 201.184798,419.185136 199.687432,426.383093 C198.190066,433.581048 205.462986,441.828707 212.393652,439.36512 C203.623366,442.107198 194.853079,445.963246 188.649706,452.754175 C182.446333,459.545104 179.387428,469.892165 183.216407,478.246936 C187.045386,486.601706 197.206083,491.207541 206.618097,491.100429 C216.030112,490.993317 225.035698,487.437183 233.763203,483.902472 C227.217575,486.044721 219.666572,489.365208 218.383114,496.134713 C217.292177,501.833096 221.613147,507.424364 226.939492,509.802261 C232.265837,512.180157 238.23391,512.073045 244.052245,511.94451 C262.042028,511.51606 294.79156,511.94451 307.540561,495.963334 C331.177551,466.207497 257.143501,427.497062 237.421054,419.185136 Z" id="路径" fill="#44A2F3" fill-rule="nonzero"></path>
                    <path d="M463.567565,163.114746 C465.582907,150.106083 456.470992,138.121053 446.994601,128.993664 C420.190761,103.114826 386.533064,85.3621774 349.95806,77.8120406 C336.772583,75.1250053 319.942339,75.4662161 313.767677,87.3872692 C309.651235,95.3843977 312.738566,105.53542 318.76315,112.210356 C324.787735,118.885293 333.213577,122.873194 341.382141,126.669165 C318.398673,116.006327 289.347742,108.947528 263.8987,110.90949 C220.140066,114.321598 241.386909,136.798861 271.40263,145.968902 C242.601839,134.4645 209.663362,141.501446 188.151883,163.754516 C186.180344,165.492198 184.921052,167.891095 184.614315,170.49343 C184.614315,175.057124 189.609789,177.765485 193.897749,179.364911 C224.432959,190.792455 255.891796,199.610546 287.932716,205.723446 L463.567565,163.114746 Z" id="路径" fill="#44A2F3" fill-rule="nonzero"></path>
                    <path d="M89.5401317,250.806376 C65.9169288,240.566702 38.4281111,234.700223 14.8693351,244.897231 C9.7796087,247.030496 4.77578483,250.251727 2.09132994,255.115572 C-2.7836401,263.968623 1.66181717,274.997605 7.26695895,283.424003 C27.297047,312.94179 60.2826708,331.218187 96.0902015,332.638434 C78.6519829,332.126451 60.8272025,331.657132 44.1835822,336.904963 C27.5399621,342.152796 11.9701239,354.227078 7.67499607,371.037208 C2.2846107,391.559221 14.7404813,413.01987 31.1693451,426.502107 C41.3273223,434.864507 53.4825339,441.434965 66.625625,442.544263 C83.3336722,444.037548 99.5692551,436.827112 114.086787,428.486044 C142.327252,412.251895 199.516879,377.927656 190.948099,341.662145 C181.885379,302.964714 122.999177,265.333913 89.5401317,250.806376 Z" id="路径" fill="#44A2F3" fill-rule="nonzero"></path>
                    <path d="M134.855808,349.937219 C138.553064,368.226787 146.136573,385.514374 157.095905,400.636385 C185.635222,440.717141 234.914822,468.149813 283.1017,484.835885 C332.381301,501.927891 384.767658,512.354014 436.789774,511.990811 C461.071239,511.89596 485.27446,509.239025 508.995101,504.064392 C585.571316,486.972385 694.372101,428.239976 675.645853,334.682604 C658.098031,247.086068 567.980642,170.471148 486.947837,143.017112 C483.069747,141.713846 479.148805,140.474676 475.227863,139.34233 C388.817156,114.21708 290.965009,130.454487 217.77409,182.777393 C183.49263,207.197598 154.096278,242.257577 140.640804,281.205986 C132.597708,303.191474 130.60031,326.922456 134.855808,349.937219 L134.855808,349.937219 Z" id="路径" fill="#7DABE0" fill-rule="nonzero"></path>
                    <path d="M415.510771,87.9839679 C415.88865,87.9222023 416.166042,87.5964363 416.166042,87.2144288 C416.166042,86.8324215 415.88865,86.5066553 415.510771,86.4448898 C415.132894,86.5066553 414.855502,86.8324215 414.855502,87.2144288 C414.855502,87.5964363 415.132894,87.9222023 415.510771,87.9839679 L415.510771,87.9839679 Z" id="路径" fill="#CAE6FE" fill-rule="nonzero"></path>
                    <path d="M361.696721,187.189673 C360.837153,180.270724 363.053526,173.322728 367.76181,168.176543 C389.814735,143.810618 434.02774,183.763884 407.045591,207.551708 C387.585868,224.723476 363.839863,206.738083 361.696721,187.189673 Z" id="路径" fill="#CAE6FE" fill-rule="nonzero"></path>
                    <path d="M292.586109,249.415472 C315.806359,256.759941 339.283422,235.066162 332.58486,211.737922 C326.956359,192.18805 303.072673,184.143097 287.150218,197.282479 C278.195404,205.187996 273.811485,217.006184 275.465188,228.783033 C276.50637,238.434404 283.237346,246.54591 292.586109,249.415472 L292.586109,249.415472 Z M302.45204,219.804101 C302.732463,219.944632 302.991771,220.12324 303.222482,220.334772 L303.222482,220.334772 L302.45204,219.804101 Z M304.48515,220.186183 L304.48515,220.186183 L304.763365,220.186183 L304.763365,220.186183 L304.48515,220.186183 Z M302.516244,217.23566 C302.418923,217.330143 302.302097,217.402564 302.173826,217.447928 L302.173826,217.447928 L302.366436,217.278113 L302.516244,217.23566 Z M304.656359,218.318226 L304.656359,218.318226 C304.632693,218.206235 304.632693,218.09059 304.656359,217.978599 C304.666668,218.063197 304.666668,218.148719 304.656359,218.23332 L304.656359,218.042278 C304.669137,218.119594 304.669137,218.198457 304.656359,218.275773 C304.656359,218.785217 304.656359,219.315885 304.656359,218.275773 L304.48515,218.488041 C304.551148,218.455966 304.615437,218.420542 304.67776,218.381908 L304.656359,218.318226 Z" id="形状" fill="#CAE6FE" fill-rule="nonzero"></path>
                    <polygon id="路径" fill="#CAE6FE" fill-rule="nonzero" points="304.94788 218.097635 304.94788 218.097635 304.94788 218.097635 304.94788 217.974509"></polygon>
                    <path d="M360.841566,241.886232 C375.186601,236.89255 391.070817,242.624273 398.914342,255.624563 C407.287069,265.625981 408.622471,279.750891 402.272287,291.14243 C395.922102,302.533971 383.201176,308.833447 370.284814,306.982816 C362.190311,306.641787 354.570199,303.073156 349.128514,297.074953 C344.565882,292.600861 341.435688,286.873367 340.134945,280.618912 C336.794477,264.719254 345.081407,247.300247 360.841566,241.886232 Z" id="路径" fill="#CAE6FE" fill-rule="nonzero"></path>
                    <path d="M284.388212,318.947326 C288.221891,320.375845 293.340601,320.866231 296.917272,318.350332 C299.78047,316.35591 301.789921,313.366657 302.549995,309.971109 C303.426212,305.914894 302.596603,301.678404 300.254097,298.246856 C297.911591,294.815307 294.260333,292.487749 290.149438,291.805468 C288.323297,291.098865 286.365357,290.793401 284.409629,290.909977 C279.436213,291.183002 275.214805,294.634733 273.979453,299.438449 C272.179335,307.601842 276.586071,315.861282 284.388212,318.947326 L284.388212,318.947326 Z M287.622209,306.15462 C287.202158,306.296147 286.758262,306.354103 286.315761,306.32519 C286.754634,306.276513 287.190695,306.205347 287.622209,306.111978 L287.622209,306.15462 Z" id="形状" fill="#CAE6FE" fill-rule="nonzero"></path>
                    <path d="M284.503866,384.18133 C284.907025,385.604686 285.480721,386.973592 286.21236,388.257994 C299.837609,412.267404 336.99738,394.566097 334.669554,369.805722 C332.640717,348.177942 303.382737,338.372492 288.34798,353.820907 C280.634422,362.02579 279.080628,374.297512 284.503866,384.18133 L284.503866,384.18133 Z M308.29466,373.989668 C308.335284,373.882417 308.401246,373.786693 308.486866,373.710738 C308.410832,373.794789 308.346201,373.888579 308.29466,373.989668 L308.29466,373.989668 Z" id="形状" fill="#CAE6FE" fill-rule="nonzero"></path>
                    <path d="M217.217247,329.970013 C224.336624,323.001354 234.990886,321.231641 243.944019,325.530597 C252.438126,329.432374 258.099671,337.760121 258.655421,347.170067 C258.877611,353.560325 255.497323,359.526155 249.930476,362.56862 C243.561906,370.053434 232.947619,373.720776 223.479676,368.402057 C210.020762,360.874351 206.32699,341.400972 217.217247,329.970013 Z" id="路径" fill="#CAE6FE" fill-rule="nonzero"></path>
                    <path d="M204.810844,294.54295 C221.288255,298.801909 237.060407,288.367457 243.514593,273.588867 C258.474627,239.240355 209.94,210.109069 186.196286,239.155176 C170.830193,257.958484 181.280846,288.537816 204.810844,294.54295 Z M211.222287,261.812842 C211.222287,261.685073 211.222287,261.557305 211.094059,261.386946 C211.24366,261.898022 211.457375,261.770252 211.585603,261.536009 C211.649718,261.706369 211.521488,261.834136 211.222287,261.812842 Z" id="形状" fill="#CAE6FE" fill-rule="nonzero"></path>
                    <path d="M170.485808,323.841895 C171.987376,322.172679 174.109856,321.200069 176.350797,321.154309 C177.222649,321.160957 178.091764,321.253097 178.945738,321.429416 C180.593196,321.856424 182.113222,322.676865 183.376126,323.820734 C185.04391,325.332523 186.127066,327.385622 186.435203,329.61915 C186.970042,332.2207 186.589831,334.927768 185.359251,337.279831 C183.436826,340.875896 179.722068,343.144024 175.654593,343.205219 C173.748155,343.284263 171.855053,342.853351 170.169352,341.956655 C168.545526,341.077806 167.167342,339.804513 166.160906,338.253288 C164.433658,335.420263 164.082654,331.953668 165.206784,328.83015 C166.330913,325.706634 168.808492,323.264306 171.941507,322.191252 C173.791212,321.596398 175.767133,321.515946 177.658816,321.958469 C179.46766,322.377622 181.134186,323.268202 182.490048,324.540245 L182.76431,324.794191 L180.654602,323.228195 L180.844476,323.228195 L178.291729,322.254738 L178.5027,322.254738 L175.717885,322.000792 L175.907758,322.000792 L173.207332,322.466359 L173.502691,322.466359 L171.118721,323.587951 C171.21501,323.531825 171.306717,323.468139 171.392983,323.397491 L169.430954,325.048136 C169.592382,324.921352 169.734523,324.771644 169.852896,324.603731 L168.418294,326.719941 C169.317456,325.233462 170.491881,323.933304 171.878216,322.889602 L172.131381,322.720305 L170.338129,324.243976 L170.5491,324.011192 L169.262177,325.852295 L169.262177,325.661837 L168.502683,327.778047 C168.512563,327.714947 168.512563,327.650687 168.502683,327.587587 L168.291712,329.703797 C168.243012,328.595717 168.437464,327.490425 168.861333,326.465997 C169.452051,324.921162 169.093401,325.598351 170.422517,323.820734 L170.485808,323.841895 Z" id="路径" fill="#CAE6FE" fill-rule="nonzero"></path>
                    <path d="M228.506168,397.993152 C241.147967,393.886702 256.923568,398.965733 263.361719,409.318312 C266.285632,413.649863 266.676842,419.243781 264.385,423.950244 C264.684698,427.284017 263.8578,430.622063 262.039979,433.416694 C256.156107,442.407659 242.491026,443.963788 232.855117,438.711853 C221.726924,432.617017 218.848941,422.221212 217.591157,411.544439 C216.866333,405.406377 222.302519,399.938313 228.506168,397.993152 Z" id="路径" fill="#CAE6FE" fill-rule="nonzero"></path>
                    <path d="M339.497369,467.695689 C349.000637,458.775674 337.327673,441.063681 326.479193,439.783295 C321.351269,439.166366 316.226188,440.951945 312.636535,444.606078 C296.559087,460.546874 326.761254,487.178883 339.497369,467.695689 Z M324.309499,447.550966 C324.390394,447.480228 324.486985,447.429073 324.591559,447.401586 L324.591559,447.401586 C324.352892,447.465607 324.244408,447.508286 324.222711,447.550966 L324.309499,447.550966 Z" id="形状" fill="#CAE6FE" fill-rule="nonzero"></path>
                    <path d="M237.978469,209.146696 C241.237038,210.874521 245.184734,210.717753 248.293254,208.737082 C248.989612,208.284352 249.70773,207.853178 250.46937,207.422005 C255.715631,206.024002 259.761945,201.882825 261.001767,196.642681 C261.824694,191.648391 260.466625,186.542932 257.266119,182.599063 C254.065613,178.655194 249.324213,176.244494 244.223919,175.967936 C239.197092,175.967936 234.540207,179.999403 232.059436,184.030871 C230.600816,186.492336 229.722982,189.248734 229.491619,192.093806 C228.616978,198.949151 231.956782,205.659923 237.978469,209.146696 L237.978469,209.146696 Z" id="形状" fill="#CAE6FE" fill-rule="nonzero"></path>
                    <path d="M329.544208,146.213512 C337.146422,144.404614 345.078021,147.46326 349.494172,153.906775 C352.390577,158.305075 352.498733,163.975814 349.772147,168.481235 C349.119396,170.721052 347.896386,172.753309 346.222636,174.379403 C341.637107,178.766657 334.781249,179.785873 329.116557,176.922454 C317.591337,171.302098 314.512242,149.65411 329.544208,146.213512 Z" id="路径" fill="#CAE6FE" fill-rule="nonzero"></path>
                    <path d="M415.829686,429.438544 C417.900532,444.898569 420.826366,460.232514 424.593787,475.37017 C427.55908,487.914784 431.632054,500.172629 436.764959,512 C461.048923,511.905068 485.254637,509.245842 508.977722,504.066744 C585.561821,486.959993 694.373812,428.17692 675.645635,334.538842 C658.096005,246.866742 567.969334,170.18573 486.928187,142.708012 C483.049696,141.403622 479.12835,140.163382 475.207005,139.03006 C439.823803,198.724092 418.651461,265.730024 413.322597,334.880976 C410.811889,366.400131 411.65227,398.095978 415.829686,429.438544 L415.829686,429.438544 Z" id="路径" fill="#CAE6FE" fill-rule="nonzero"></path>
                    <path d="M532.244615,279.599198 C551.143057,257.710086 569.998744,257.710086 588.811674,279.599198" id="路径-18复制-7" stroke="#2B2927" stroke-width="19.53504" stroke-linecap="round" stroke-linejoin="round"></path>
                    <path d="M390.192064,436.135901 C380.57123,442.8919 371.122195,444.409862 366.977504,431.11166 C366.245735,427.895165 366.35666,424.545406 367.29963,421.383876 C369.77884,410.115078 373.607294,399.183154 378.702897,388.822522 C376.03344,398.346267 370.762771,406.946167 363.477067,413.665788 C359.479432,417.396236 354.922113,420.483476 349.969242,422.816319 C309.66052,441.630496 315.609115,389.079081 337.706973,371.889764 C345.888978,365.47584 418.560643,327.48403 408.875382,313.458919 C426.699699,339.30703 429.534409,375.673978 417.358039,404.600775 C414.73808,410.715383 402.304009,427.584002 390.192064,436.135901 Z" id="路径" fill="#44A2F3" fill-rule="nonzero"></path>
                    <path d="M666.706812,379.008394 C650.686165,418.144713 595.742871,431.31953 561.336114,410.058697 C553.745123,405.379588 560.282407,392.981031 567.787381,397.746388 C599.011514,417.411582 639.31043,404.840521 658.363173,374.588037 C659.68028,372.565547 662.311699,371.873221 664.449421,372.986747 C666.587144,374.100272 667.535245,376.657147 666.6423,378.90058 L666.706812,379.008394 Z" id="路径" fill="#1D1D1B" fill-rule="nonzero"></path>
                    <path d="M584.185496,44.7153986 C584.185496,45.4432607 584.185496,46.156851 584.185496,46.8561696 C583.884542,84.1055826 617.010889,102.259319 650.825128,91.1701263 C658.003242,89.0312306 664.533897,85.1467084 669.828171,79.8668561 C675.027696,73.9340317 678.642861,66.7925172 680.340034,59.1013788 C686.251615,35.5528994 674.879884,13.9525214 652.630846,3.99793695 C622.879474,-9.23202695 586.120194,11.9187891 584.185496,44.7153986 Z" id="路径" fill="#69C4DA" fill-rule="nonzero"></path>
                    <path d="M608.764775,38.974547 C612.452342,40.3333079 615.992404,36.9903245 616.455985,33.4532324 C616.977677,29.5360798 614.56431,25.8354739 610.829812,24.8261785 C608.297742,24.1098495 605.584951,24.843142 603.728615,26.7456981 C602.387959,28.292863 601.510215,30.2019582 601.199998,32.2454448 C600.869989,34.5377111 601.454721,36.8694951 602.822527,38.7157353 C605.351143,42.0802864 610.218731,43.4821826 613.48486,40.2254697 C614.18446,39.5342136 614.761917,38.7242625 615.191677,37.8314623 C615.522667,37.1957224 615.757146,36.5121008 615.887045,35.8041047 C615.887045,35.5021577 615.887045,34.4884789 616.076693,34.251235 L615.92919,34.9413992 L616.097764,33.6689089 C616.062072,30.8635838 614.546528,28.297491 612.136264,26.9613743 C608.87973,25.1034769 604.817562,25.6560899 602.14823,28.3201354 C600.467547,30.4091295 599.784796,33.1565401 600.286057,35.8135796 C600.787317,38.4706189 602.420342,40.7603486 604.74006,42.0587188 C608.705741,44.5056551 613.767512,44.0155721 617.21457,40.8509311 C620.208657,37.9142864 621.389673,33.5344324 620.291054,29.4416525 C619.46406,26.2611554 617.28144,23.6310824 614.348805,22.2811976 C610.649847,20.7795714 606.435129,21.6221286 603.560039,24.4379611 C601.145156,26.7639861 599.941083,30.1179408 600.310008,33.4909422 C600.678934,36.8639433 602.577803,39.8623507 605.43543,41.5842308 C609.468352,43.9182269 614.563526,42.8715414 617.404216,39.1255203 C618.695516,37.505313 619.402408,35.4794404 619.406039,33.3885295 C619.43414,30.8599922 618.45227,28.4293546 616.687774,26.6594275 L616.498128,26.508454 L617.952083,28.4495413 C617.847207,28.3313872 617.768182,28.1916789 617.720294,28.0397561 C618.03637,28.816191 618.352448,29.5710581 618.647453,30.3259254 L618.647453,30.110249 L618.984601,32.6552301 C618.953055,32.3325212 618.953055,32.0073952 618.984601,31.6846863 C618.858172,32.5258242 618.752812,33.3669619 618.647453,34.2080997 C618.677353,34.0512529 618.726931,33.8990188 618.794956,33.7551792 L617.867797,35.9119427 L617.973154,35.7178341 L616.540271,37.6157859 L616.708847,37.443245 L614.854527,38.8882764 C614.960404,38.7837375 615.091166,38.7093818 615.233821,38.6726 L613.126639,39.6000083 L613.358428,39.6000083 L608.57513,39.6000083 L608.849062,39.6000083 L606.741882,38.6726 C606.915579,38.7600576 607.078309,38.8686836 607.226534,38.9961147 L605.43543,37.5942183 C605.579469,37.7273083 605.713317,37.871516 605.835794,38.0255709 L604.466128,36.2138897 C604.58465,36.381243 604.683657,36.5622009 604.761133,36.7530806 L603.897188,34.5963171 C604.003713,34.8822126 604.081381,35.1785129 604.128979,35.4805901 C604.128979,34.725723 603.939331,33.949288 603.833974,33.1944209 C603.855051,33.3951406 603.855051,33.5975948 603.833974,33.7983145 L604.15005,31.641551 C604.097893,31.9355763 604.020326,32.2242791 603.918261,32.5042566 L604.74006,30.5200342 L604.592558,30.7788457 L605.856867,29.0965702 C605.140425,30.0455463 607.563682,28.0397561 606.573307,28.6005146 L608.448698,27.8025122 C608.175159,27.9069788 607.893092,27.986372 607.605825,28.0397561 L609.713007,27.7593769 L609.122997,27.7593769 L611.230176,28.0397561 C610.303017,27.8887828 610.534807,27.5221329 611.862332,28.4279737 L612.873777,29.2475437 C613.632363,30.3906284 613.843081,30.6494399 613.48486,30.002411 C613.822009,31.231766 614.138087,32.4611213 614.454162,33.6904765 C614.497519,33.4408106 614.497519,33.1852751 614.454162,32.9356092 C614.472461,33.8092728 614.245772,34.6700057 613.800938,35.4158871 C614.032727,35.0708051 613.948441,35.1570756 613.61129,35.6531312 C613.342181,36.1047613 612.955453,36.4707159 612.494486,36.7099453 C613.379501,36.2210789 612.677109,36.0916731 610.387304,36.3217279 C609.059781,36.7746482 608.153692,36.5158365 607.626898,35.5237254 C607.100104,34.5316142 607.28975,34.7041553 607.395109,35.1786433 L607.395109,32.6552301 C607.690114,32.008201 607.75333,31.8572275 607.563682,32.1807419 C607.374036,32.5042566 607.563682,32.3532831 607.87976,31.7493893 C609.085096,30.6416826 610.842567,30.4341259 612.262696,31.231766 C612.936993,31.943498 613.61129,32.6336624 614.369876,33.3885295 C614.138087,33.0218798 614.159157,33.1081504 614.369876,33.6473412 C614.638263,34.1324141 614.762742,34.6870194 614.728097,35.2433462 C614.728097,35.2433462 614.390949,37.0118921 614.728097,36.1707544 C615.065246,35.3296168 613.822009,37.7020565 614.433092,36.7530806 C614.201301,37.0981627 613.948441,37.443245 613.695579,37.7667594 C612.620915,38.5000591 612.32591,38.7588706 612.852707,38.5216265 C613.71665,38.0255709 615.360251,36.731513 615.59204,35.7825371 L608.46977,38.6941677 C606.109729,37.1628656 605.582932,36.8824865 606.868312,37.8745976 C608.153692,38.8667088 607.858687,38.3275179 605.224711,35.3511842 C605.393287,35.7609694 605.561862,36.1707544 605.751508,36.5805395 C606.44332,37.7222248 607.5126,38.5717554 608.764775,38.974547 L608.764775,38.974547 Z" id="路径" fill="#B3DEEF" fill-rule="nonzero"></path>
                    <path d="M601.172932,53.5543433 L600.810287,54.8072362 C600.271176,56.818053 601.03413,58.9553739 602.718321,60.1523604 C604.402512,61.3493468 606.646826,61.3493468 608.331019,60.1523604 C610.01521,58.9553739 610.778165,56.818053 610.239053,54.8072362 L609.876408,53.5543433 C609.299433,51.6087486 607.530751,50.2765531 605.52467,50.2765531 C603.518589,50.2765531 601.749908,51.6087486 601.172932,53.5543433 Z" id="路径" fill="#B3DEEF" fill-rule="nonzero"></path>
                    <path d="M707.897495,143.612403 C719.630091,145.931424 733.440785,140.825323 738.203092,129.5068 C743.896214,115.826706 735.367353,100.06162 722.37924,94.5512868 L721.383486,94.1470538 C690.709892,81.9136881 673.890286,121.273213 697.961589,139.357319 C700.902913,141.496989 704.300374,142.951962 707.897495,143.612403 L707.897495,143.612403 Z" id="路径" fill="#B3DEEF" fill-rule="nonzero"></path>
                    <path d="M709.084881,100.824618 C706.618041,97.8827176 701.748717,98.8345089 699.64654,101.603356 C697.213589,105.060138 697.622228,109.785373 700.611826,112.765272 C702.540295,114.514225 705.16705,115.256606 707.715967,114.773064 C710.264886,114.289522 712.444569,112.635337 713.610995,110.299267 C714.468165,108.718122 714.87639,106.929241 714.790787,105.12931 C714.76609,102.567488 713.713667,100.124946 711.873481,98.3586133 C710.286097,96.86143 708.211425,95.9999508 706.038872,95.9358717 C703.859448,95.9668128 701.773386,96.8330209 700.204262,98.3586133 C697.041016,101.641016 697.041016,106.865443 700.204262,110.147846 C701.426956,111.294322 699.260427,108.438948 699.732343,109.520529 C699.474934,108.87158 699.196074,108.222632 698.917214,107.573683 C698.983011,107.747611 699.026271,107.929376 699.045919,108.114474 C699.045919,107.40063 698.852863,106.686787 698.767059,105.951312 C698.798777,106.130156 698.798777,106.313258 698.767059,106.492102 C698.767059,105.778259 698.960116,105.064415 699.045919,104.32894 C699.539287,102.425358 699.818147,102.598411 699.432032,103.398781 L704.001047,99.8511948 L703.722187,99.8511948 L705.695659,99.5916155 L708.462808,100.370354 L710.264674,102.144147 C709.942912,101.38704 706.446437,98.2720867 708.891825,100.759723 C709.650417,101.21163 710.115467,102.034389 710.114519,102.922885 C710.414829,104.220782 710.500632,104.393835 710.329025,103.420412 C710.200589,102.447522 709.772979,101.539701 709.106331,100.824618 L709.084881,100.824618 Z" id="路径" fill="#FFFFFF" fill-rule="nonzero"></path>
                    <path d="M694.096453,119.7201 L693.844198,120.340214 C693.458768,121.726637 693.974271,123.209641 695.130775,124.041464 C696.287281,124.873286 697.833638,124.873286 698.990142,124.041464 C700.146648,123.209641 700.662148,121.726637 700.27672,120.340214 L700.045486,119.7201 C699.644816,118.390639 698.437963,117.482966 697.070969,117.482966 C695.703975,117.482966 694.497123,118.390639 694.096453,119.7201 L694.096453,119.7201 Z" id="路径" fill="#FFFFFF" fill-rule="nonzero"></path>
                </g>
            </g>
        </g>
    </g>
</svg>